<?xml version="1.0" standalone="no"?><!DOCTYPE svg PUBLIC "-//W3C//DTD SVG 1.1//EN" "http://www.w3.org/Graphics/SVG/1.1/DTD/svg11.dtd"><svg t="1638526402645" class="icon" viewBox="0 0 1024 1024" version="1.1" xmlns="http://www.w3.org/2000/svg" p-id="2316" xmlns:xlink="http://www.w3.org/1999/xlink" width="200" height="200"><defs><style type="text/css"></style></defs><path d="M462.234781 1023.997914c-28.862221 0-55.982613-11.212376-76.371406-31.624116L32.605726 639.141182c-42.093868-42.114728-42.093868-110.607224 0-152.721952L412.387163 106.658652c95.571166-99.576331 326.60244-179.3563 505.95874 0 139.490305 139.490305 139.490305 366.462177 0 505.956654l-379.760577 379.760577C518.198619 1012.785538 491.076141 1023.997914 462.234781 1023.997914zM443.141407 137.410811l-379.781437 379.760577c-25.126153 25.147013-25.126153 66.072708 0 91.219721l353.255563 353.234702c24.381443 24.379357 66.813246 24.423163 91.217635 0l379.760577-379.762663c122.52259-122.54345 122.535106-321.917232 0-444.450252C802.087642 51.906794 599.027857-18.477725 443.141407 137.410811z" p-id="2317"></path><path d="M766.329027 153.402267c-51.843942 0-93.873143 42.029201-93.873143 93.873143 0 51.846028 42.029201 93.873143 93.873143 93.873143 51.843942 0 93.873143-42.027115 93.873143-93.873143C860.200085 195.433554 818.172969 153.402267 766.329027 153.402267zM766.329027 297.654964c-27.823381 0-50.377467-22.556172-50.377467-50.377467 0-27.821295 22.554086-50.375381 50.377467-50.375381 27.821295 0 50.377467 22.556172 50.377467 50.375381C816.704409 275.098791 794.150323 297.654964 766.329027 297.654964z" p-id="2318"></path><path d="M235.081424 518.168507c0 12.851991 19.368728 16.375284 33.895796 19.942385 14.527068 3.590046 45.917549 12.60584 45.917549 47.467465 0 38.207606-39.290253 46.280517-56.111946 46.280517-24.254195 0-46.130324-9.005363-65.538686-26.97437l20.388794-24.99682c16.479586 14.464487 31.772224 21.70716 45.788216 21.70716 6.287275 0 20.178105-2.905831 20.178105-15.017283 0-11.715108-17.034468-16.414919-28.290651-19.19976-17.797952-4.226284-51.52478-11.57743-51.52478-48.550111 0-38.00109 39.206812-45.492 54.837386-45.492 10.236117 0 20.474321 1.74183 30.710438 5.246349 10.194397 3.52538 19.114233 8.494288 26.719875 14.910896l-17.330683 24.99682c-13.294228-10.08801-27.01609-15.121584-41.20105-15.121584C247.824942 503.366084 235.081424 506.559786 235.081424 518.168507z" p-id="2319"></path><path d="M451.500104 630.094098l-14.272573-33.109365L373.00304 596.984733l-14.272573 33.109365-36.40111 0 66.220816-153.255974 33.132311 0 66.220816 153.255974L451.500104 630.094098zM405.242533 522.436511 385.915525 566.952252l38.39952 0L405.242533 522.436511z" p-id="2320"></path><path d="M505.657446 630.094098l0-153.255974 34.194097 0 0 122.777085 65.327998 0 0 30.476803L505.657446 630.092012z" p-id="2321"></path><path d="M740.677196 476.838124l0 30.476803-76.287965 0 0 31.561535 68.642689 0 0 29.160522-68.642689 0 0 31.793084 78.709838 0 0 30.264029-112.90185 0 0-153.255974L740.677196 476.838124z" p-id="2322"></path></svg>