<?xml version="1.0" standalone="no"?><!DOCTYPE svg PUBLIC "-//W3C//DTD SVG 1.1//EN" "http://www.w3.org/Graphics/SVG/1.1/DTD/svg11.dtd"><svg t="1638526443597" class="icon" viewBox="0 0 1024 1024" version="1.1" xmlns="http://www.w3.org/2000/svg" p-id="4066" xmlns:xlink="http://www.w3.org/1999/xlink" width="200" height="200"><defs><style type="text/css"></style></defs><path d="M496 851.91H100V169.04h824V359h-48V217.04H148v586.87h348v48z" p-id="4067"></path><path d="M924 383H100V169h824z m-776-48h728V217H148zM214 504.98h249.71v48H214zM214 628.43h199.71v48H214z" p-id="4068"></path><path d="M622.26 560.28h48v204.3h-48zM722.34 612.56h48v152.01h-48zM822.42 687.83h48v76.75h-48z" p-id="4069"></path><path d="M746.34 893a230.77 230.77 0 1 1 163.17-67.6A229.21 229.21 0 0 1 746.34 893z m0-413.51c-100.77 0-182.76 82-182.76 182.75S645.57 845 746.34 845 929.1 763 929.1 662.23s-81.99-182.75-182.76-182.75z" p-id="4070"></path></svg>